<?xml version="1.0" encoding="UTF-8" standalone="no"?>
<!-- Created with Inkscape (http://www.inkscape.org/) -->

<svg
   xmlns:dc="http://purl.org/dc/elements/1.1/"
   xmlns:cc="http://creativecommons.org/ns#"
   xmlns:rdf="http://www.w3.org/1999/02/22-rdf-syntax-ns#"
   xmlns:svg="http://www.w3.org/2000/svg"
   xmlns="http://www.w3.org/2000/svg"
   xmlns:sodipodi="http://sodipodi.sourceforge.net/DTD/sodipodi-0.dtd"
   xmlns:inkscape="http://www.inkscape.org/namespaces/inkscape"
   width="256"
   height="256"
   viewBox="0 0 256.00003 256"
   id="svg4252"
   version="1.1"
   inkscape:version="0.91 r13725"
   sodipodi:docname="Logo.svg"
   inkscape:export-filename="C:\Users\Marcin\Documents\Visual Studio 2015\Projects\HotBinder\HotBinder\Resources\Logo.png"
   inkscape:export-xdpi="90"
   inkscape:export-ydpi="90">
  <defs
     id="defs4254" />
  <sodipodi:namedview
     id="base"
     pagecolor="#ffffff"
     bordercolor="#666666"
     borderopacity="1.0"
     inkscape:pageopacity="0.0"
     inkscape:pageshadow="2"
     inkscape:zoom="0.98994949"
     inkscape:cx="119.45172"
     inkscape:cy="-77.999801"
     inkscape:document-units="px"
     inkscape:current-layer="layer1"
     showgrid="false"
     fit-margin-top="0"
     fit-margin-left="0"
     fit-margin-right="0"
     fit-margin-bottom="0"
     inkscape:window-width="1920"
     inkscape:window-height="1017"
     inkscape:window-x="-8"
     inkscape:window-y="-8"
     inkscape:window-maximized="1"
     units="px" />
  <metadata
     id="metadata4257">
    <rdf:RDF>
      <cc:Work
         rdf:about="">
        <dc:format>image/svg+xml</dc:format>
        <dc:type
           rdf:resource="http://purl.org/dc/dcmitype/StillImage" />
        <dc:title></dc:title>
      </cc:Work>
    </rdf:RDF>
  </metadata>
  <g
     inkscape:label="Layer 1"
     inkscape:groupmode="layer"
     id="layer1"
     transform="translate(8.0035693,328.49779)">
    <g
       id="g4808"
       transform="matrix(1.4826832,0,0,1.4826832,47.980405,31.111002)">
      <path
         inkscape:connector-curvature="0"
         id="path22393-1-5-8"
         d="m 37.774479,-239.92066 c 9.58322,6.08936 11.237,14.1539 10.73047,27.25586 0,4.77516 -0.60547,7.96651 -2.0957,11.04492 -6.99194,14.44343 -36.9551401,8.43806 -38.6113301,-8.78711 -1.72703,9.0382 -2.62824,13.97616 7.8437501,28.6211 5.86828,7.98486 8.8102,13.83059 8.8418,17.56836 0.028,3.31808 -4.51638,10.1066 -8.95703,13.38281 -11.3302401,7.96083 -19.1024006,-0.87955 -20.0976606,-11.19141 -3.2776,3.28027 -5.8264904,14.16701 0.25977,26.7461 6.7815405,14.0161 7.6539905,16.64418 8.7421805,26.34765 1.07324,9.570025 4.45871,16.714555 11.0449301,23.300775 5.7449,5.7449 12.49262,9.67591 20.13281,11.73047 15.46924,4.15991 34.79762,-1.19044 45.45312,-12.58203 7.55822,-8.08034 9.56819,-13.769525 10.49219,-29.707025 0.954042,-16.45562 3.021342,-23.22044 10.037111,-32.84375 2.93162,-4.07228 6.68418,-12.78585 -0.93945,-20.02148 -2.116159,5.91716 0.13477,9.92689 -8.832031,11.73828 -2.62203,0 -7.77455,-2.3292 -10.56446,-4.77539 -4.74577,-4.45362 -4.8321,-29.81043 2.59375,-32.02149 -3.45721,-1.61745 -5.63561,0.096 -9.83008,5.21484 -4.43705,5.41483 -7.44646,5.95322 -10.24414,1.83204 -3.24651,-4.78234 -4.23336,-8.05695 -6.28906,-20.8711 -1.43165,-8.68773 -5.80995,-28.80533 -19.71094,-31.98242 z m 10.78125,91.04883 a 31.132704,31.132704 0 0 1 31.13282,31.13281 31.132704,31.132704 0 0 1 -31.13282,31.132805 31.132704,31.132704 0 0 1 -31.13281,-31.132805 31.132704,31.132704 0 0 1 31.13281,-31.13281 z"
         style="fill:#ff6600" />
      <circle
         r="23.27556"
         cy="-117.3205"
         cx="48.573051"
         id="path3347-3-4-9-3"
         style="fill:#000000;fill-opacity:0.56213014;fill-rule:evenodd;stroke:none;stroke-width:1px;stroke-linecap:butt;stroke-linejoin:miter;stroke-opacity:1" />
    </g>
  </g>
</svg>
